<svg data-v-423bf9ae="" xmlns="http://www.w3.org/2000/svg" viewBox="0 0 233.08983809571401 60" class="font"><!----><!----><!----><g data-v-423bf9ae="" id="55632b47-7fdb-4602-bba8-73403d0b2743" fill="#81E291" transform="matrix(4.283164821746525,0,0,4.283164821746525,1.1564559146541313,-15.490780936956824)"><path d="M7.75 4.58L7.75 4.58L7.75 4.58Q7.69 4.86 7.48 5.13L7.48 5.13L7.48 5.13Q7.27 5.40 7.01 5.59L7.01 5.59L7.01 5.59Q6.98 5.63 6.88 5.67L6.88 5.67L6.88 5.67Q6.78 5.71 6.67 5.75L6.67 5.75L6.67 5.75Q6.56 5.80 6.45 5.83L6.45 5.83L6.45 5.83Q6.34 5.87 6.28 5.87L6.28 5.87L6.28 5.87Q6.22 5.89 6.19 5.87L6.19 5.87L6.19 5.87Q6.16 5.84 6.13 5.82L6.13 5.82L6.13 5.82Q6.10 5.79 6.07 5.77L6.07 5.77L6.07 5.77Q6.03 5.74 5.96 5.74L5.96 5.74L5.96 5.74Q5.88 5.74 5.86 5.70L5.86 5.70L5.86 5.70Q5.84 5.67 5.88 5.56L5.88 5.56L5.88 5.56Q5.89 5.53 5.93 5.47L5.93 5.47L5.93 5.47Q5.96 5.41 6.04 5.31L6.04 5.31L6.04 5.31Q6.09 5.25 6.13 5.17L6.13 5.17L6.13 5.17Q6.17 5.10 6.14 5.03L6.14 5.03L6.14 5.03Q6.12 4.97 6.01 4.93L6.01 4.93L6.01 4.93Q5.90 4.89 5.67 4.89L5.67 4.89L5.67 4.89Q5.43 4.89 5.05 4.95L5.05 4.95L5.05 4.95Q4.64 5.00 4.20 5.15L4.20 5.15L4.20 5.15Q3.76 5.30 3.35 5.50L3.35 5.50L3.35 5.50Q2.93 5.70 2.58 5.93L2.58 5.93L2.58 5.93Q2.24 6.15 2.01 6.37L2.01 6.37L2.01 6.37Q1.79 6.58 1.73 6.77L1.73 6.77L1.73 6.77Q1.67 6.96 1.83 7.08L1.83 7.08L1.83 7.08Q1.98 7.18 2.27 7.25L2.27 7.25L2.27 7.25Q2.56 7.32 2.95 7.38L2.95 7.38L2.95 7.38Q3.33 7.44 3.77 7.50L3.77 7.50L3.77 7.50Q4.20 7.57 4.64 7.66L4.64 7.66L4.64 7.66Q5.07 7.75 5.47 7.88L5.47 7.88L5.47 7.88Q5.86 8.00 6.16 8.20L6.16 8.20L6.16 8.20Q6.37 8.34 6.51 8.47L6.51 8.47L6.51 8.47Q6.66 8.60 6.75 8.73L6.75 8.73L6.75 8.73Q6.84 8.85 6.89 8.97L6.89 8.97L6.89 8.97Q6.95 9.09 6.99 9.21L6.99 9.21L6.99 9.21Q7.01 9.29 7.09 9.38L7.09 9.38L7.09 9.38Q7.16 9.47 7.24 9.60L7.24 9.60L7.24 9.60Q7.32 9.73 7.39 9.90L7.39 9.90L7.39 9.90Q7.46 10.07 7.48 10.29L7.48 10.29L7.48 10.29Q7.51 10.75 7.30 11.15L7.30 11.15L7.30 11.15Q7.09 11.55 6.76 11.89L6.76 11.89L6.76 11.89Q6.43 12.24 6.02 12.51L6.02 12.51L6.02 12.51Q5.62 12.78 5.25 12.95L5.25 12.95L5.25 12.95Q4.93 13.11 4.57 13.25L4.57 13.25L4.57 13.25Q4.20 13.38 3.82 13.48L3.82 13.48L3.82 13.48Q3.44 13.58 3.05 13.64L3.05 13.64L3.05 13.64Q2.65 13.70 2.27 13.70L2.27 13.70L2.27 13.70Q1.63 13.70 1.08 13.52L1.08 13.52L1.08 13.52Q0.52 13.35 0.11 12.94L0.11 12.94L0.11 12.94Q-0.09 12.73-0.18 12.51L-0.18 12.51L-0.18 12.51Q-0.27 12.30-0.27 12.09L-0.27 12.09L-0.27 12.09Q-0.27 11.83-0.16 11.59L-0.16 11.59L-0.16 11.59Q-0.06 11.35 0.10 11.14L0.10 11.14L0.10 11.14Q0.27 10.93 0.46 10.76L0.46 10.76L0.46 10.76Q0.66 10.60 0.85 10.49L0.85 10.49L0.85 10.49Q1.12 10.34 1.41 10.20L1.41 10.20L1.41 10.20Q1.70 10.06 2.00 9.95L2.00 9.95L2.00 9.95Q2.29 9.84 2.58 9.76L2.58 9.76L2.58 9.76Q2.88 9.69 3.15 9.67L3.15 9.67L3.15 9.67Q3.27 9.65 3.45 9.64L3.45 9.64L3.45 9.64Q3.62 9.63 3.78 9.63L3.78 9.63L3.78 9.63Q3.88 9.63 3.95 9.68L3.95 9.68L3.95 9.68Q4.02 9.73 4.01 9.78L4.01 9.78L4.01 9.78Q3.97 9.85 3.89 9.85L3.89 9.85L3.89 9.85Q3.80 9.85 3.68 9.88L3.68 9.88L3.68 9.88Q3.55 9.91 3.42 9.93L3.42 9.93L3.42 9.93Q3.29 9.94 3.19 9.97L3.19 9.97L3.19 9.97Q2.41 10.15 1.88 10.42L1.88 10.42L1.88 10.42Q1.34 10.70 1.02 10.98L1.02 10.98L1.02 10.98Q0.70 11.26 0.59 11.51L0.59 11.51L0.59 11.51Q0.47 11.76 0.52 11.89L0.52 11.89L0.52 11.89Q0.59 12.07 0.77 12.17L0.77 12.17L0.77 12.17Q0.96 12.28 1.19 12.32L1.19 12.32L1.19 12.32Q1.42 12.37 1.66 12.37L1.66 12.37L1.66 12.37Q1.90 12.38 2.07 12.37L2.07 12.37L2.07 12.37Q2.47 12.35 2.96 12.25L2.96 12.25L2.96 12.25Q3.45 12.15 3.95 12.00L3.95 12.00L3.95 12.00Q4.45 11.84 4.93 11.62L4.93 11.62L4.93 11.62Q5.41 11.41 5.78 11.15L5.78 11.15L5.78 11.15Q6.15 10.90 6.37 10.60L6.37 10.60L6.37 10.60Q6.60 10.30 6.60 9.97L6.60 9.97L6.60 9.97Q6.60 9.86 6.57 9.76L6.57 9.76L6.57 9.76Q6.54 9.65 6.48 9.54L6.48 9.54L6.48 9.54Q6.38 9.34 6.09 9.20L6.09 9.20L6.09 9.20Q5.80 9.06 5.40 8.96L5.40 8.96L5.40 8.96Q5.00 8.86 4.54 8.78L4.54 8.78L4.54 8.78Q4.07 8.70 3.61 8.62L3.61 8.62L3.61 8.62Q3.16 8.54 2.75 8.44L2.75 8.44L2.75 8.44Q2.34 8.33 2.06 8.18L2.06 8.18L2.06 8.18Q1.74 8.01 1.60 7.84L1.60 7.84L1.60 7.84Q1.45 7.68 1.43 7.42L1.43 7.42L1.43 7.42Q1.42 7.40 1.39 7.33L1.39 7.33L1.39 7.33Q1.35 7.26 1.31 7.18L1.31 7.18L1.31 7.18Q1.26 7.11 1.22 7.04L1.22 7.04L1.22 7.04Q1.18 6.97 1.16 6.93L1.16 6.93L1.16 6.93Q1.05 6.73 1.05 6.50L1.05 6.50L1.05 6.50Q1.05 6.24 1.17 5.97L1.17 5.97L1.17 5.97Q1.29 5.69 1.47 5.50L1.47 5.50L1.47 5.50Q1.80 5.12 2.33 4.80L2.33 4.80L2.33 4.80Q2.87 4.48 3.51 4.24L3.51 4.24L3.51 4.24Q4.14 4.00 4.82 3.85L4.82 3.85L4.82 3.85Q5.49 3.71 6.09 3.68L6.09 3.68L6.09 3.68Q6.34 3.68 6.64 3.72L6.64 3.72L6.64 3.72Q6.95 3.76 7.22 3.87L7.22 3.87L7.22 3.87Q7.48 3.97 7.64 4.15L7.64 4.15L7.64 4.15Q7.79 4.32 7.75 4.58ZM12.45 8.91L12.45 8.91L12.45 8.91Q12.46 9.00 12.47 9.12L12.47 9.12L12.47 9.12Q12.48 9.24 12.48 9.37L12.48 9.37L12.48 9.37Q12.48 9.70 12.45 10.14L12.45 10.14L12.45 10.14Q12.42 10.58 12.38 11.18L12.38 11.18L12.38 11.18Q12.37 11.41 12.36 11.77L12.36 11.77L12.36 11.77Q12.35 12.13 12.35 12.51L12.35 12.51L12.35 12.51Q12.35 12.84 12.36 13.15L12.36 13.15L12.36 13.15Q12.37 13.45 12.39 13.69L12.39 13.69L12.39 13.69Q12.41 13.79 12.35 13.79L12.35 13.79L12.35 13.79Q12.28 13.80 12.21 13.78L12.21 13.78L12.21 13.78Q12.17 13.77 12.15 13.78L12.15 13.78L12.15 13.78Q12.12 13.79 12.10 13.82L12.10 13.82L12.10 13.82Q12.07 13.84 12.05 13.85L12.05 13.85L12.05 13.85Q12.02 13.86 11.98 13.82L11.98 13.82L11.98 13.82Q11.95 13.79 11.87 13.74L11.87 13.74L11.87 13.74Q11.79 13.69 11.69 13.62L11.69 13.62L11.69 13.62Q11.60 13.56 11.52 13.48L11.52 13.48L11.52 13.48Q11.44 13.41 11.40 13.34L11.40 13.34L11.40 13.34Q11.35 13.25 11.34 12.87L11.34 12.87L11.34 12.87Q11.33 12.50 11.33 11.96L11.33 11.96L11.33 11.04L11.33 11.04Q11.33 10.74 11.35 10.45L11.35 10.45L11.35 10.45Q11.38 10.15 11.40 9.88L11.40 9.88L11.40 9.88Q11.43 9.60 11.45 9.36L11.45 9.36L11.45 9.36Q11.47 9.12 11.47 8.92L11.47 8.92L11.47 8.92Q11.47 8.61 11.38 8.45L11.38 8.45L11.38 8.45Q11.36 8.42 11.26 8.48L11.26 8.48L11.26 8.48Q11.16 8.54 11.00 8.74L11.00 8.74L11.00 8.74Q10.83 8.94 10.63 9.30L10.63 9.30L10.63 9.30Q10.43 9.67 10.21 10.24L10.21 10.24L10.21 10.24Q9.99 10.81 9.76 11.63L9.76 11.63L9.76 11.63Q9.53 12.44 9.32 13.54L9.32 13.54L9.32 13.54Q9.30 13.64 9.27 13.68L9.27 13.68L9.27 13.68Q9.24 13.71 9.16 13.71L9.16 13.71L9.16 13.71Q9.11 13.71 9.07 13.63L9.07 13.63L9.07 13.63Q9.03 13.54 8.98 13.49L8.98 13.49L8.98 13.49Q8.85 13.49 8.74 13.46L8.74 13.46L8.74 13.46Q8.63 13.43 8.61 13.29L8.61 13.29L8.61 13.29Q8.61 13.24 8.59 13.20L8.59 13.20L8.59 13.20Q8.57 13.16 8.53 13.11L8.53 13.11L8.53 13.11Q8.50 13.06 8.48 13.00L8.48 13.00L8.48 13.00Q8.46 12.94 8.46 12.86L8.46 12.86L8.46 12.86Q8.48 12.38 8.49 11.82L8.49 11.82L8.49 11.82Q8.50 11.25 8.52 10.66L8.52 10.66L8.52 10.66Q8.54 10.07 8.55 9.47L8.55 9.47L8.55 9.47Q8.57 8.88 8.59 8.34L8.59 8.34L8.59 8.34Q8.61 7.79 8.62 7.32L8.62 7.32L8.62 7.32Q8.64 6.86 8.67 6.51L8.67 6.51L8.67 6.51Q8.75 5.50 8.83 4.91L8.83 4.91L8.83 4.91Q8.91 4.33 8.93 4.23L8.93 4.23L8.93 4.23Q8.96 4.16 8.98 4.13L8.98 4.13L8.98 4.13Q9.00 4.09 9.01 4.08L9.01 4.08L9.01 4.08Q9.03 4.07 9.04 4.06L9.04 4.06L9.04 4.06Q9.05 4.05 9.06 4.03L9.06 4.03L9.06 4.03Q9.07 4.00 9.11 4.00L9.11 4.00L9.11 4.00Q9.15 3.99 9.19 4.00L9.19 4.00L9.19 4.00Q9.24 4.00 9.28 4.00L9.28 4.00L9.28 4.00Q9.32 3.99 9.35 3.96L9.35 3.96L9.35 3.96Q9.41 3.92 9.44 3.90L9.44 3.90L9.44 3.90Q9.48 3.87 9.58 3.87L9.58 3.87L9.58 3.87Q9.69 3.86 9.75 3.87L9.75 3.87L9.75 3.87Q9.82 3.89 9.83 4.01L9.83 4.01L9.83 4.01Q9.85 4.22 9.84 4.56L9.84 4.56L9.84 4.56Q9.84 4.90 9.81 5.31L9.81 5.31L9.81 5.31Q9.78 5.72 9.75 6.18L9.75 6.18L9.75 6.18Q9.71 6.63 9.68 7.07L9.68 7.07L9.68 7.07Q9.64 7.51 9.61 7.90L9.61 7.90L9.61 7.90Q9.58 8.29 9.56 8.57L9.56 8.57L9.56 8.57Q9.55 8.73 9.55 8.95L9.55 8.95L9.55 8.95Q9.54 9.17 9.54 9.43L9.54 9.43L9.54 9.43Q9.54 9.69 9.54 9.96L9.54 9.96L9.54 9.96Q9.54 10.24 9.54 10.51L9.54 10.51L9.54 10.51Q9.75 9.85 9.99 9.36L9.99 9.36L9.99 9.36Q10.24 8.87 10.49 8.54L10.49 8.54L10.49 8.54Q10.73 8.22 10.96 8.05L10.96 8.05L10.96 8.05Q11.19 7.88 11.37 7.85L11.37 7.85L11.37 7.85Q11.41 7.84 11.52 7.87L11.52 7.87L11.52 7.87Q11.62 7.90 11.74 7.93L11.74 7.93L11.74 7.93Q11.85 7.96 11.95 8.00L11.95 8.00L11.95 8.00Q12.04 8.04 12.06 8.05L12.06 8.05L12.06 8.05Q12.09 8.09 12.14 8.15L12.14 8.15L12.14 8.15Q12.20 8.20 12.25 8.30L12.25 8.30L12.25 8.30Q12.31 8.39 12.36 8.54L12.36 8.54L12.36 8.54Q12.41 8.70 12.45 8.91ZM18.40 10.62L18.40 10.62L18.40 10.62Q18.40 11.33 18.19 11.91L18.19 11.91L18.19 11.91Q17.98 12.48 17.62 12.89L17.62 12.89L17.62 12.89Q17.26 13.29 16.79 13.51L16.79 13.51L16.79 13.51Q16.32 13.73 15.79 13.73L15.79 13.73L15.79 13.73Q15.57 13.73 15.31 13.68L15.31 13.68L15.31 13.68Q15.05 13.62 14.79 13.51L14.79 13.51L14.79 13.51Q14.53 13.39 14.29 13.20L14.29 13.20L14.29 13.20Q14.04 13.01 13.85 12.73L13.85 12.73L13.85 12.73Q13.66 12.45 13.55 12.07L13.55 12.07L13.55 12.07Q13.43 11.70 13.44 11.20L13.44 11.20L13.44 11.20Q13.44 10.64 13.58 10.18L13.58 10.18L13.58 10.18Q13.71 9.72 13.93 9.35L13.93 9.35L13.93 9.35Q14.14 8.99 14.42 8.72L14.42 8.72L14.42 8.72Q14.69 8.46 14.96 8.27L14.96 8.27L14.96 8.27Q15.24 8.09 15.49 8.00L15.49 8.00L15.49 8.00Q15.74 7.92 15.93 7.90L15.93 7.90L15.93 7.90Q16.02 7.90 16.01 7.92L16.01 7.92L16.01 7.92Q16.00 7.95 15.96 7.98L15.96 7.98L15.96 7.98Q15.92 8.02 15.89 8.05L15.89 8.05L15.89 8.05Q15.86 8.09 15.91 8.09L15.91 8.09L15.91 8.09Q15.96 8.11 15.99 8.12L15.99 8.12L15.99 8.12Q16.02 8.13 16.06 8.16L16.06 8.16L16.11 8.09L16.11 8.09Q16.16 8.06 16.20 8.06L16.20 8.06L16.20 8.06Q16.25 8.06 16.28 8.07L16.28 8.07L16.28 8.07Q16.32 8.08 16.34 8.08L16.34 8.08L16.34 8.08Q16.36 8.08 16.37 8.04L16.37 8.04L16.37 8.04Q16.38 7.96 16.42 7.95L16.42 7.95L16.42 7.95Q16.45 7.94 16.59 7.94L16.59 7.94L16.59 7.94Q16.67 7.94 16.84 7.99L16.84 7.99L16.84 7.99Q17.01 8.04 17.21 8.16L17.21 8.16L17.21 8.16Q17.41 8.27 17.62 8.47L17.62 8.47L17.62 8.47Q17.83 8.66 18.00 8.96L18.00 8.96L18.00 8.96Q18.18 9.26 18.29 9.67L18.29 9.67L18.29 9.67Q18.40 10.08 18.40 10.62ZM15.93 8.61L15.93 8.61L15.93 8.61Q15.69 8.76 15.46 9.00L15.46 9.00L15.46 9.00Q15.22 9.25 15.04 9.57L15.04 9.57L15.04 9.57Q14.85 9.89 14.73 10.29L14.73 10.29L14.73 10.29Q14.62 10.68 14.62 11.12L14.62 11.12L14.62 11.12Q14.62 11.59 14.70 11.98L14.70 11.98L14.70 11.98Q14.79 12.36 14.95 12.63L14.95 12.63L14.95 12.63Q15.11 12.90 15.35 13.05L15.35 13.05L15.35 13.05Q15.59 13.19 15.89 13.19L15.89 13.19L15.89 13.19Q16.15 13.19 16.42 13.04L16.42 13.04L16.42 13.04Q16.68 12.89 16.88 12.59L16.88 12.59L16.88 12.59Q17.09 12.29 17.22 11.85L17.22 11.85L17.22 11.85Q17.34 11.40 17.34 10.81L17.34 10.81L17.34 10.81Q17.34 10.22 17.19 9.82L17.19 9.82L17.19 9.82Q17.03 9.41 16.83 9.16L16.83 9.16L16.83 9.16Q16.64 8.91 16.46 8.81L16.46 8.81L16.46 8.81Q16.28 8.70 16.24 8.70L16.24 8.70L16.24 8.70Q16.15 8.70 16.10 8.70L16.10 8.70L16.10 8.70Q16.04 8.70 15.93 8.61ZM20.88 7.76L20.88 7.76L20.88 7.76Q20.86 7.81 20.86 7.95L20.86 7.95L20.86 7.95Q20.85 8.09 20.84 8.31L20.84 8.31L20.84 8.31Q21.13 8.22 21.44 8.18L21.44 8.18L21.44 8.18Q21.75 8.13 22.07 8.13L22.07 8.13L22.07 8.13Q22.42 8.13 22.78 8.21L22.78 8.21L22.78 8.21Q23.13 8.29 23.44 8.48L23.44 8.48L23.44 8.48Q23.68 8.62 23.85 8.93L23.85 8.93L23.85 8.93Q24.01 9.25 24.12 9.61L24.12 9.61L24.12 9.61Q24.19 9.82 24.25 10.08L24.25 10.08L24.25 10.08Q24.31 10.34 24.31 10.64L24.31 10.64L24.31 10.64Q24.31 10.90 24.24 11.18L24.24 11.18L24.24 11.18Q24.18 11.46 24.01 11.76L24.01 11.76L24.01 11.76Q23.85 12.06 23.57 12.37L23.57 12.37L23.57 12.37Q23.29 12.68 22.85 13.00L22.85 13.00L22.85 13.00Q22.43 13.30 22.10 13.46L22.10 13.46L22.10 13.46Q21.77 13.62 21.53 13.69L21.53 13.69L21.53 13.69Q21.30 13.75 21.17 13.74L21.17 13.74L21.17 13.74Q21.05 13.74 21.03 13.73L21.03 13.73L21.03 13.73Q20.97 13.69 20.90 13.57L20.90 13.57L20.90 13.57Q20.84 13.46 20.73 13.33L20.73 13.33L20.73 13.33Q20.70 13.29 20.67 13.24L20.67 13.24L20.67 13.24Q20.64 13.20 20.61 13.14L20.61 13.14L20.61 13.14Q20.59 13.79 20.58 14.42L20.58 14.42L20.58 14.42Q20.57 15.05 20.57 15.60L20.57 15.60L20.57 15.60Q20.57 15.94 20.58 16.24L20.58 16.24L20.58 16.24Q20.58 16.54 20.60 16.78L20.60 16.78L20.60 16.78Q20.60 16.86 20.61 16.95L20.61 16.95L20.61 16.95Q20.62 17.04 20.61 17.10L20.61 17.10L20.61 17.10Q20.61 17.17 20.58 17.21L20.58 17.21L20.58 17.21Q20.56 17.25 20.48 17.25L20.48 17.25L20.48 17.25Q20.34 17.25 20.27 17.32L20.27 17.32L20.27 17.32Q20.20 17.38 20.10 17.52L20.10 17.52L20.10 17.52Q20.05 17.58 19.99 17.61L19.99 17.61L19.99 17.61Q19.93 17.64 19.86 17.61L19.86 17.61L19.86 17.61Q19.80 17.58 19.73 17.48L19.73 17.48L19.73 17.48Q19.67 17.38 19.61 17.19L19.61 17.19L19.61 17.19Q19.59 17.10 19.57 16.97L19.57 16.97L19.57 16.97Q19.56 16.84 19.55 16.64L19.55 16.64L19.55 16.64Q19.54 16.43 19.53 16.15L19.53 16.15L19.53 16.15Q19.53 15.87 19.53 15.48L19.53 15.48L19.56 13.11L19.56 13.11Q19.57 12.22 19.63 11.37L19.63 11.37L19.63 11.37Q19.68 10.52 19.76 9.78L19.76 9.78L19.76 9.78Q19.58 9.84 19.44 9.88L19.44 9.88L19.44 9.88Q19.30 9.91 19.26 9.89L19.26 9.89L19.26 9.89Q19.20 9.86 19.17 9.83L19.17 9.83L19.17 9.83Q19.15 9.80 19.15 9.77L19.15 9.77L19.15 9.77Q19.14 9.73 19.13 9.71L19.13 9.71L19.13 9.71Q19.12 9.69 19.07 9.68L19.07 9.68L19.07 9.68Q19.02 9.67 18.99 9.64L18.99 9.64L18.99 9.64Q18.96 9.60 18.95 9.57L18.95 9.57L18.95 9.57Q18.94 9.54 18.95 9.51L18.95 9.51L18.95 9.51Q18.97 9.47 19.02 9.47L19.02 9.47L19.02 9.47Q19.07 9.46 19.04 9.43L19.04 9.43L19.04 9.43Q19.00 9.40 18.97 9.35L18.97 9.35L18.97 9.35Q18.94 9.30 18.96 9.22L18.96 9.22L18.96 9.22Q18.97 9.14 19.13 9.04L19.13 9.04L19.13 9.04Q19.21 8.97 19.41 8.86L19.41 8.86L19.41 8.86Q19.62 8.76 19.91 8.63L19.91 8.63L19.91 8.63Q19.98 8.09 20.06 7.76L20.06 7.76L20.06 7.76Q20.14 7.42 20.20 7.34L20.20 7.34L20.20 7.34Q20.23 7.31 20.25 7.28L20.25 7.28L20.25 7.28Q20.26 7.25 20.28 7.23L20.28 7.23L20.28 7.23Q20.29 7.21 20.31 7.20L20.31 7.20L20.31 7.20Q20.33 7.18 20.38 7.17L20.38 7.17L20.38 7.17Q20.43 7.16 20.47 7.19L20.47 7.19L20.47 7.19Q20.50 7.22 20.53 7.26L20.53 7.26L20.53 7.26Q20.56 7.31 20.60 7.35L20.60 7.35L20.60 7.35Q20.63 7.39 20.68 7.40L20.68 7.40L20.68 7.40Q20.77 7.41 20.83 7.50L20.83 7.50L20.83 7.50Q20.89 7.58 20.88 7.76ZM22.19 9.09L22.19 9.09L22.19 9.09Q21.88 9.09 21.53 9.16L21.53 9.16L21.53 9.16Q21.18 9.23 20.76 9.39L20.76 9.39L20.64 12.35L20.64 12.35Q20.70 12.37 20.77 12.38L20.77 12.38L20.77 12.38Q20.85 12.38 20.95 12.38L20.95 12.38L20.95 12.38Q21.17 12.38 21.47 12.32L21.47 12.32L21.47 12.32Q21.77 12.26 22.07 12.13L22.07 12.13L22.07 12.13Q22.38 12.00 22.68 11.82L22.68 11.82L22.68 11.82Q22.98 11.64 23.22 11.40L23.22 11.40L23.22 11.40Q23.45 11.16 23.60 10.87L23.60 10.87L23.60 10.87Q23.74 10.58 23.75 10.23L23.75 10.23L23.75 10.23Q23.75 10.02 23.66 9.82L23.66 9.82L23.66 9.82Q23.56 9.62 23.36 9.45L23.36 9.45L23.36 9.45Q23.17 9.29 22.87 9.19L22.87 9.19L22.87 9.19Q22.58 9.09 22.19 9.09ZM29.43 13.21L29.43 13.21L29.43 13.21Q29.43 13.29 29.37 13.39L29.37 13.39L29.37 13.39Q29.31 13.49 29.20 13.49L29.20 13.49L29.20 13.49Q29.14 13.49 29.11 13.45L29.11 13.45L29.11 13.45Q29.07 13.42 29.04 13.42L29.04 13.42L29.04 13.42Q28.99 13.42 28.95 13.45L28.95 13.45L28.95 13.45Q28.90 13.49 28.80 13.49L28.80 13.49L28.80 13.49Q28.66 13.49 28.56 13.39L28.56 13.39L28.56 13.39Q28.46 13.29 28.40 13.14L28.40 13.14L28.40 13.14Q28.34 12.98 28.31 12.80L28.31 12.80L28.31 12.80Q28.28 12.62 28.28 12.46L28.28 12.46L28.28 12.46Q28.28 12.15 28.30 11.76L28.30 11.76L28.30 11.76Q28.33 11.37 28.36 10.95L28.36 10.95L28.36 10.95Q28.39 10.54 28.41 10.13L28.41 10.13L28.41 10.13Q28.44 9.72 28.44 9.37L28.44 9.37L28.44 9.37Q28.44 8.91 28.38 8.65L28.38 8.65L28.38 8.65Q28.31 8.39 28.16 8.39L28.16 8.39L28.16 8.39Q28.01 8.41 27.85 8.65L27.85 8.65L27.85 8.65Q27.69 8.89 27.53 9.26L27.53 9.26L27.53 9.26Q27.36 9.63 27.21 10.10L27.21 10.10L27.21 10.10Q27.05 10.57 26.90 11.06L26.90 11.06L26.90 11.06Q26.76 11.55 26.63 12.01L26.63 12.01L26.63 12.01Q26.50 12.47 26.39 12.83L26.39 12.83L26.39 12.83Q26.29 13.19 26.22 13.42L26.22 13.42L26.22 13.42Q26.14 13.64 26.11 13.64L26.11 13.64L26.11 13.64Q26.06 13.64 26.03 13.61L26.03 13.61L26.03 13.61Q26.00 13.59 25.98 13.56L25.98 13.56L25.98 13.56Q25.96 13.54 25.92 13.51L25.92 13.51L25.92 13.51Q25.89 13.49 25.82 13.49L25.82 13.49L25.82 13.49Q25.76 13.49 25.74 13.50L25.74 13.50L25.74 13.50Q25.72 13.51 25.69 13.54L25.69 13.54L25.69 13.54Q25.66 13.56 25.62 13.57L25.62 13.57L25.62 13.57Q25.58 13.58 25.48 13.58L25.48 13.58L25.48 13.58Q25.35 13.58 25.23 13.52L25.23 13.52L25.23 13.52Q25.12 13.46 25.12 13.33L25.12 13.33L25.12 13.33Q25.12 13.25 25.14 12.99L25.14 12.99L25.14 12.99Q25.17 12.74 25.21 12.36L25.21 12.36L25.21 12.36Q25.25 11.99 25.29 11.53L25.29 11.53L25.29 11.53Q25.33 11.07 25.37 10.58L25.37 10.58L25.37 10.58Q25.41 10.08 25.44 9.59L25.44 9.59L25.44 9.59Q25.46 9.10 25.46 8.65L25.46 8.65L25.46 8.65Q25.46 8.44 25.46 8.25L25.46 8.25L25.46 8.25Q25.45 8.06 25.45 7.89L25.45 7.89L25.45 7.89Q25.45 7.85 25.49 7.85L25.49 7.85L25.49 7.85Q25.57 7.85 25.62 7.88L25.62 7.88L25.62 7.88Q25.66 7.91 25.68 7.94L25.68 7.94L25.68 7.94Q25.70 7.98 25.71 8.01L25.71 8.01L25.71 8.01Q25.71 8.04 25.72 8.04L25.72 8.04L25.72 8.04Q25.74 8.04 25.76 8.02L25.76 8.02L25.76 8.02Q25.79 7.99 25.82 7.96L25.82 7.96L25.82 7.96Q25.85 7.94 25.88 7.91L25.88 7.91L25.88 7.91Q25.91 7.89 25.93 7.89L25.93 7.89L26.00 7.89L26.00 7.89Q26.10 7.89 26.14 7.86L26.14 7.86L26.14 7.86Q26.18 7.83 26.20 7.79L26.20 7.79L26.20 7.79Q26.22 7.75 26.22 7.72L26.22 7.72L26.22 7.72Q26.23 7.69 26.26 7.69L26.26 7.69L26.26 7.69Q26.28 7.69 26.32 7.72L26.32 7.72L26.32 7.72Q26.36 7.75 26.40 7.82L26.40 7.82L26.40 7.82Q26.43 7.90 26.46 8.01L26.46 8.01L26.46 8.01Q26.49 8.13 26.49 8.29L26.49 8.29L26.49 8.29Q26.49 8.51 26.47 8.85L26.47 8.85L26.47 8.85Q26.46 9.18 26.43 9.56L26.43 9.56L26.43 9.56Q26.41 9.94 26.39 10.33L26.39 10.33L26.39 10.33Q26.37 10.71 26.36 11.03L26.36 11.03L26.36 11.03Q26.43 10.73 26.54 10.37L26.54 10.37L26.54 10.37Q26.65 10.01 26.79 9.65L26.79 9.65L26.79 9.65Q26.93 9.28 27.09 8.92L27.09 8.92L27.09 8.92Q27.25 8.57 27.45 8.30L27.45 8.30L27.45 8.30Q27.64 8.03 27.85 7.86L27.85 7.86L27.85 7.86Q28.06 7.69 28.29 7.69L28.29 7.69L28.29 7.69Q28.66 7.69 28.90 7.83L28.90 7.83L28.90 7.83Q29.13 7.96 29.27 8.20L29.27 8.20L29.27 8.20Q29.41 8.44 29.46 8.76L29.46 8.76L29.46 8.76Q29.51 9.08 29.51 9.45L29.51 9.45L29.51 9.45Q29.51 9.77 29.48 10.11L29.48 10.11L29.48 10.11Q29.46 10.46 29.43 10.80L29.43 10.80L29.43 10.80Q29.39 11.15 29.37 11.48L29.37 11.48L29.37 11.48Q29.35 11.82 29.35 12.11L29.35 12.11L29.35 12.11Q29.35 12.48 29.39 12.77L29.39 12.77L29.39 12.77Q29.43 13.06 29.43 13.21ZM37.96 4.58L37.96 4.58L37.96 4.58Q37.91 4.86 37.70 5.13L37.70 5.13L37.70 5.13Q37.49 5.40 37.23 5.59L37.23 5.59L37.23 5.59Q37.19 5.63 37.10 5.67L37.10 5.67L37.10 5.67Q37.00 5.71 36.88 5.75L36.88 5.75L36.88 5.75Q36.77 5.80 36.66 5.83L36.66 5.83L36.66 5.83Q36.55 5.87 36.49 5.87L36.49 5.87L36.49 5.87Q36.44 5.89 36.40 5.87L36.40 5.87L36.40 5.87Q36.37 5.84 36.35 5.82L36.35 5.82L36.35 5.82Q36.32 5.79 36.28 5.77L36.28 5.77L36.28 5.77Q36.24 5.74 36.18 5.74L36.18 5.74L36.18 5.74Q36.09 5.74 36.08 5.70L36.08 5.70L36.08 5.70Q36.06 5.67 36.09 5.56L36.09 5.56L36.09 5.56Q36.11 5.53 36.14 5.47L36.14 5.47L36.14 5.47Q36.18 5.41 36.25 5.31L36.25 5.31L36.25 5.31Q36.31 5.25 36.34 5.17L36.34 5.17L36.34 5.17Q36.38 5.10 36.36 5.03L36.36 5.03L36.36 5.03Q36.33 4.97 36.22 4.93L36.22 4.93L36.22 4.93Q36.11 4.89 35.88 4.89L35.88 4.89L35.88 4.89Q35.64 4.89 35.27 4.95L35.27 4.95L35.27 4.95Q34.86 5.00 34.42 5.15L34.42 5.15L34.42 5.15Q33.97 5.30 33.56 5.50L33.56 5.50L33.56 5.50Q33.15 5.70 32.80 5.93L32.80 5.93L32.80 5.93Q32.45 6.15 32.23 6.37L32.23 6.37L32.23 6.37Q32.01 6.58 31.94 6.77L31.94 6.77L31.94 6.77Q31.88 6.96 32.05 7.08L32.05 7.08L32.05 7.08Q32.19 7.18 32.48 7.25L32.48 7.25L32.48 7.25Q32.78 7.32 33.16 7.38L33.16 7.38L33.16 7.38Q33.54 7.44 33.98 7.50L33.98 7.50L33.98 7.50Q34.42 7.57 34.85 7.66L34.85 7.66L34.85 7.66Q35.29 7.75 35.68 7.88L35.68 7.88L35.68 7.88Q36.07 8.00 36.37 8.20L36.37 8.20L36.37 8.20Q36.59 8.34 36.73 8.47L36.73 8.47L36.73 8.47Q36.87 8.60 36.96 8.73L36.96 8.73L36.96 8.73Q37.05 8.85 37.11 8.97L37.11 8.97L37.11 8.97Q37.16 9.09 37.20 9.21L37.20 9.21L37.20 9.21Q37.23 9.29 37.30 9.38L37.30 9.38L37.30 9.38Q37.37 9.47 37.45 9.60L37.45 9.60L37.45 9.60Q37.54 9.73 37.60 9.90L37.60 9.90L37.60 9.90Q37.67 10.07 37.69 10.29L37.69 10.29L37.69 10.29Q37.72 10.75 37.51 11.15L37.51 11.15L37.51 11.15Q37.30 11.55 36.97 11.89L36.97 11.89L36.97 11.89Q36.64 12.24 36.24 12.51L36.24 12.51L36.24 12.51Q35.83 12.78 35.46 12.95L35.46 12.95L35.46 12.95Q35.14 13.11 34.78 13.25L34.78 13.25L34.78 13.25Q34.42 13.38 34.04 13.48L34.04 13.48L34.04 13.48Q33.65 13.58 33.26 13.64L33.26 13.64L33.26 13.64Q32.87 13.70 32.48 13.70L32.48 13.70L32.48 13.70Q31.85 13.70 31.29 13.52L31.29 13.52L31.29 13.52Q30.73 13.35 30.32 12.94L30.32 12.94L30.32 12.94Q30.13 12.73 30.04 12.51L30.04 12.51L30.04 12.51Q29.95 12.30 29.95 12.09L29.95 12.09L29.95 12.09Q29.95 11.83 30.05 11.59L30.05 11.59L30.05 11.59Q30.15 11.35 30.32 11.14L30.32 11.14L30.32 11.14Q30.48 10.93 30.68 10.76L30.68 10.76L30.68 10.76Q30.88 10.60 31.07 10.49L31.07 10.49L31.07 10.49Q31.34 10.34 31.63 10.20L31.63 10.20L31.63 10.20Q31.92 10.06 32.21 9.95L32.21 9.95L32.21 9.95Q32.50 9.84 32.80 9.76L32.80 9.76L32.80 9.76Q33.09 9.69 33.37 9.67L33.37 9.67L33.37 9.67Q33.48 9.65 33.66 9.64L33.66 9.64L33.66 9.64Q33.84 9.63 34.00 9.63L34.00 9.63L34.00 9.63Q34.10 9.63 34.17 9.68L34.17 9.68L34.17 9.68Q34.23 9.73 34.22 9.78L34.22 9.78L34.22 9.78Q34.19 9.85 34.10 9.85L34.10 9.85L34.10 9.85Q34.02 9.85 33.90 9.88L33.90 9.88L33.90 9.88Q33.77 9.91 33.64 9.93L33.64 9.93L33.64 9.93Q33.51 9.94 33.41 9.97L33.41 9.97L33.41 9.97Q32.63 10.15 32.09 10.42L32.09 10.42L32.09 10.42Q31.55 10.70 31.24 10.98L31.24 10.98L31.24 10.98Q30.92 11.26 30.80 11.51L30.80 11.51L30.80 11.51Q30.69 11.76 30.73 11.89L30.73 11.89L30.73 11.89Q30.80 12.07 30.99 12.17L30.99 12.17L30.99 12.17Q31.17 12.28 31.40 12.32L31.40 12.32L31.40 12.32Q31.64 12.37 31.88 12.37L31.88 12.37L31.88 12.37Q32.12 12.38 32.29 12.37L32.29 12.37L32.29 12.37Q32.68 12.35 33.17 12.25L33.17 12.25L33.17 12.25Q33.66 12.15 34.16 12.00L34.16 12.00L34.16 12.00Q34.67 11.84 35.14 11.62L35.14 11.62L35.14 11.62Q35.62 11.41 35.99 11.15L35.99 11.15L35.99 11.15Q36.36 10.90 36.59 10.60L36.59 10.60L36.59 10.60Q36.81 10.30 36.81 9.97L36.81 9.97L36.81 9.97Q36.81 9.86 36.78 9.76L36.78 9.76L36.78 9.76Q36.75 9.65 36.70 9.54L36.70 9.54L36.70 9.54Q36.59 9.34 36.31 9.20L36.31 9.20L36.31 9.20Q36.02 9.06 35.62 8.96L35.62 8.96L35.62 8.96Q35.22 8.86 34.75 8.78L34.75 8.78L34.75 8.78Q34.28 8.70 33.83 8.62L33.83 8.62L33.83 8.62Q33.37 8.54 32.96 8.44L32.96 8.44L32.96 8.44Q32.55 8.33 32.27 8.18L32.27 8.18L32.27 8.18Q31.96 8.01 31.81 7.84L31.81 7.84L31.81 7.84Q31.66 7.68 31.64 7.42L31.64 7.42L31.64 7.42Q31.64 7.40 31.60 7.33L31.60 7.33L31.60 7.33Q31.57 7.26 31.52 7.18L31.52 7.18L31.52 7.18Q31.48 7.11 31.44 7.04L31.44 7.04L31.44 7.04Q31.40 6.97 31.38 6.93L31.38 6.93L31.38 6.93Q31.27 6.73 31.27 6.50L31.27 6.50L31.27 6.50Q31.27 6.24 31.39 5.97L31.39 5.97L31.39 5.97Q31.51 5.69 31.68 5.50L31.68 5.50L31.68 5.50Q32.01 5.12 32.55 4.80L32.55 4.80L32.55 4.80Q33.09 4.48 33.72 4.24L33.72 4.24L33.72 4.24Q34.36 4.00 35.03 3.85L35.03 3.85L35.03 3.85Q35.70 3.71 36.31 3.68L36.31 3.68L36.31 3.68Q36.55 3.68 36.86 3.72L36.86 3.72L36.86 3.72Q37.17 3.76 37.43 3.87L37.43 3.87L37.43 3.87Q37.69 3.97 37.85 4.15L37.85 4.15L37.85 4.15Q38.01 4.32 37.96 4.58ZM40.70 5.46L40.70 5.46L40.70 5.46Q40.70 5.50 40.69 5.68L40.69 5.68L40.69 5.68Q40.67 5.85 40.65 6.14L40.65 6.14L40.65 6.14Q40.63 6.43 40.59 6.81L40.59 6.81L40.59 6.81Q40.56 7.18 40.52 7.62L40.52 7.62L40.52 7.62Q40.95 7.57 41.34 7.54L41.34 7.54L41.34 7.54Q41.73 7.51 41.99 7.51L41.99 7.51L41.99 7.51Q42.08 7.51 42.15 7.54L42.15 7.54L42.15 7.54Q42.22 7.57 42.26 7.62L42.26 7.62L42.26 7.62Q42.31 7.66 42.33 7.71L42.33 7.71L42.33 7.71Q42.36 7.77 42.37 7.80L42.37 7.80L42.37 7.80Q42.37 7.83 42.38 7.86L42.38 7.86L42.38 7.86Q42.38 7.90 42.38 7.93L42.38 7.93L42.38 7.93Q42.38 8.07 42.26 8.20L42.26 8.20L42.26 8.20Q42.14 8.34 41.90 8.37L41.90 8.37L40.45 8.53L40.45 8.53Q40.41 9.02 40.39 9.54L40.39 9.54L40.39 9.54Q40.36 10.06 40.34 10.58L40.34 10.58L40.34 10.58Q40.31 11.09 40.30 11.59L40.30 11.59L40.30 11.59Q40.28 12.09 40.28 12.54L40.28 12.54L40.28 12.54Q40.28 12.82 40.30 13.00L40.30 13.00L40.30 13.00Q40.31 13.18 40.31 13.23L40.31 13.23L40.31 13.23Q40.31 13.35 40.27 13.46L40.27 13.46L40.27 13.46Q40.22 13.58 40.16 13.67L40.16 13.67L40.16 13.67Q40.11 13.76 40.04 13.82L40.04 13.82L40.04 13.82Q39.98 13.88 39.94 13.88L39.94 13.88L39.94 13.88Q39.69 13.88 39.55 13.72L39.55 13.72L39.55 13.72Q39.40 13.57 39.33 13.31L39.33 13.31L39.33 13.31Q39.26 13.05 39.24 12.71L39.24 12.71L39.24 12.71Q39.22 12.38 39.22 12.02L39.22 12.02L39.22 12.02Q39.22 11.16 39.27 10.31L39.27 10.31L39.27 10.31Q39.31 9.45 39.40 8.65L39.40 8.65L38.55 8.76L38.55 8.76Q38.53 8.76 38.51 8.76L38.51 8.76L38.51 8.76Q38.49 8.77 38.46 8.77L38.46 8.77L38.46 8.77Q38.33 8.77 38.25 8.71L38.25 8.71L38.25 8.71Q38.17 8.65 38.13 8.57L38.13 8.57L38.13 8.57Q38.09 8.48 38.08 8.40L38.08 8.40L38.08 8.40Q38.07 8.31 38.07 8.26L38.07 8.26L38.07 8.26Q38.07 8.17 38.10 8.09L38.10 8.09L38.10 8.09Q38.12 8.00 38.20 7.98L38.20 7.98L38.20 7.98Q38.34 7.93 38.70 7.86L38.70 7.86L38.70 7.86Q39.06 7.80 39.51 7.73L39.51 7.73L39.51 7.73Q39.59 7.18 39.67 6.72L39.67 6.72L39.67 6.72Q39.74 6.25 39.82 5.92L39.82 5.92L39.82 5.92Q39.89 5.58 39.96 5.39L39.96 5.39L39.96 5.39Q40.02 5.20 40.07 5.20L40.07 5.20L40.07 5.20Q40.09 5.20 40.11 5.21L40.11 5.21L40.11 5.21Q40.13 5.22 40.14 5.22L40.14 5.22L40.14 5.22Q40.18 5.22 40.21 5.17L40.21 5.17L40.21 5.17Q40.23 5.13 40.30 5.13L40.30 5.13L40.30 5.13Q40.36 5.13 40.43 5.16L40.43 5.16L40.43 5.16Q40.50 5.20 40.56 5.26L40.56 5.26L40.56 5.26Q40.62 5.31 40.66 5.37L40.66 5.37L40.66 5.37Q40.70 5.43 40.70 5.46ZM44.09 4.58L44.09 4.58L44.09 4.58Q44.10 4.72 44.08 4.88L44.08 4.88L44.08 4.88Q44.06 5.05 44.03 5.21L44.03 5.21L44.03 5.21Q43.99 5.37 43.92 5.49L43.92 5.49L43.92 5.49Q43.86 5.61 43.77 5.66L43.77 5.66L43.77 5.66Q43.54 5.78 43.37 5.78L43.37 5.78L43.37 5.78Q43.24 5.78 43.14 5.71L43.14 5.71L43.14 5.71Q43.04 5.65 42.94 5.56L42.94 5.56L42.94 5.56Q42.81 5.46 42.71 5.28L42.71 5.28L42.71 5.28Q42.62 5.10 42.62 4.94L42.62 4.94L42.62 4.94Q42.62 4.81 42.67 4.62L42.67 4.62L42.67 4.62Q42.71 4.43 42.78 4.25L42.78 4.25L42.78 4.25Q42.85 4.07 42.93 3.93L42.93 3.93L42.93 3.93Q43.00 3.78 43.08 3.73L43.08 3.73L43.08 3.73Q43.20 3.63 43.30 3.62L43.30 3.62L43.30 3.62Q43.39 3.61 43.46 3.63L43.46 3.63L43.46 3.63Q43.61 3.66 43.72 3.72L43.72 3.72L43.72 3.72Q43.84 3.77 43.92 3.87L43.92 3.87L43.92 3.87Q44.00 3.98 44.04 4.15L44.04 4.15L44.04 4.15Q44.08 4.32 44.09 4.58ZM43.53 7.64L43.53 7.64L43.53 7.64Q43.57 7.67 43.58 7.86L43.58 7.86L43.58 7.86Q43.60 8.05 43.60 8.36L43.60 8.36L43.60 8.36Q43.60 8.57 43.59 8.80L43.59 8.80L43.59 8.80Q43.59 9.04 43.58 9.30L43.58 9.30L43.58 9.30Q43.57 9.55 43.55 9.81L43.55 9.81L43.55 9.81Q43.54 10.06 43.53 10.29L43.53 10.29L43.53 10.29Q43.51 10.68 43.51 11.00L43.51 11.00L43.51 11.00Q43.50 11.33 43.50 11.63L43.50 11.63L43.50 11.63Q43.50 12.02 43.51 12.35L43.51 12.35L43.51 12.35Q43.52 12.68 43.52 12.90L43.52 12.90L43.52 12.90Q43.52 13.14 43.50 13.27L43.50 13.27L43.50 13.27Q43.48 13.39 43.43 13.41L43.43 13.41L43.43 13.41Q43.37 13.42 43.33 13.46L43.33 13.46L43.33 13.46Q43.29 13.51 43.25 13.55L43.25 13.55L43.25 13.55Q43.22 13.59 43.17 13.62L43.17 13.62L43.17 13.62Q43.13 13.65 43.07 13.64L43.07 13.64L43.07 13.64Q43.03 13.63 42.95 13.58L42.95 13.58L42.95 13.58Q42.87 13.52 42.78 13.44L42.78 13.44L42.78 13.44Q42.68 13.36 42.60 13.26L42.60 13.26L42.60 13.26Q42.52 13.16 42.49 13.05L42.49 13.05L42.49 13.05Q42.48 13.00 42.47 12.83L42.47 12.83L42.47 12.83Q42.46 12.67 42.45 12.43L42.45 12.43L42.45 12.43Q42.44 12.20 42.44 11.92L42.44 11.92L42.44 11.92Q42.43 11.63 42.43 11.34L42.43 11.34L42.43 11.34Q42.42 11.05 42.42 10.77L42.42 10.77L42.42 10.77Q42.42 10.49 42.42 10.27L42.42 10.27L42.42 10.27Q42.42 9.92 42.45 9.56L42.45 9.56L42.45 9.56Q42.47 9.19 42.50 8.88L42.50 8.88L42.50 8.88Q42.53 8.57 42.56 8.33L42.56 8.33L42.56 8.33Q42.59 8.09 42.61 8.00L42.61 8.00L42.61 8.00Q42.64 7.83 42.67 7.74L42.67 7.74L42.67 7.74Q42.70 7.65 42.73 7.61L42.73 7.61L42.73 7.61Q42.77 7.57 42.81 7.56L42.81 7.56L42.81 7.56Q42.85 7.55 42.89 7.54L42.89 7.54L42.89 7.54Q42.97 7.53 43.08 7.53L43.08 7.53L43.08 7.53Q43.18 7.54 43.28 7.55L43.28 7.55L43.28 7.55Q43.37 7.57 43.45 7.59L43.45 7.59L43.45 7.59Q43.52 7.62 43.53 7.64ZM49.44 11.40L49.44 11.40L49.44 11.40Q49.44 11.79 49.27 12.20L49.27 12.20L49.27 12.20Q49.10 12.60 48.78 12.93L48.78 12.93L48.78 12.93Q48.47 13.26 48.03 13.47L48.03 13.47L48.03 13.47Q47.58 13.69 47.03 13.69L47.03 13.69L47.03 13.69Q46.58 13.69 46.12 13.49L46.12 13.49L46.12 13.49Q45.66 13.30 45.29 12.94L45.29 12.94L45.29 12.94Q44.92 12.58 44.69 12.07L44.69 12.07L44.69 12.07Q44.45 11.56 44.45 10.92L44.45 10.92L44.45 10.92Q44.45 10.29 44.70 9.73L44.70 9.73L44.70 9.73Q44.94 9.17 45.34 8.75L45.34 8.75L45.34 8.75Q45.73 8.33 46.24 8.08L46.24 8.08L46.24 8.08Q46.75 7.83 47.29 7.83L47.29 7.83L47.29 7.83Q47.79 7.83 48.14 7.97L48.14 7.97L48.14 7.97Q48.48 8.10 48.69 8.28L48.69 8.28L48.69 8.28Q48.90 8.46 49.00 8.65L49.00 8.65L49.00 8.65Q49.09 8.85 49.09 8.96L49.09 8.96L49.09 8.96Q49.09 9.22 48.98 9.39L48.98 9.39L48.98 9.39Q48.87 9.55 48.73 9.63L48.73 9.63L48.73 9.63Q48.59 9.71 48.46 9.72L48.46 9.72L48.46 9.72Q48.34 9.73 48.30 9.68L48.30 9.68L48.30 9.68Q48.28 9.65 48.24 9.65L48.24 9.65L48.24 9.65Q48.21 9.65 48.18 9.67L48.18 9.67L48.18 9.67Q48.15 9.68 48.11 9.69L48.11 9.69L48.11 9.69Q48.08 9.71 48.06 9.69L48.06 9.69L48.06 9.69Q48.03 9.68 48.06 9.63L48.06 9.63L48.06 9.63Q48.09 9.58 48.09 9.55L48.09 9.55L48.09 9.55Q48.09 9.49 48.09 9.41L48.09 9.41L48.09 9.41Q48.08 9.33 48.12 9.24L48.12 9.24L48.12 9.24Q48.18 9.12 48.17 8.97L48.17 8.97L48.17 8.97Q48.16 8.83 48.07 8.70L48.07 8.70L48.07 8.70Q47.97 8.57 47.78 8.48L47.78 8.48L47.78 8.48Q47.58 8.39 47.28 8.39L47.28 8.39L47.28 8.39Q47.06 8.39 46.76 8.53L46.76 8.53L46.76 8.53Q46.46 8.67 46.19 8.98L46.19 8.98L46.19 8.98Q45.92 9.28 45.73 9.75L45.73 9.75L45.73 9.75Q45.54 10.22 45.54 10.87L45.54 10.87L45.54 10.87Q45.54 11.15 45.61 11.46L45.61 11.46L45.61 11.46Q45.68 11.76 45.87 12.02L45.87 12.02L45.87 12.02Q46.05 12.28 46.37 12.45L46.37 12.45L46.37 12.45Q46.68 12.62 47.17 12.62L47.17 12.62L47.17 12.62Q47.49 12.62 47.76 12.53L47.76 12.53L47.76 12.53Q48.03 12.44 48.25 12.30L48.25 12.30L48.25 12.30Q48.47 12.17 48.64 12.00L48.64 12.00L48.64 12.00Q48.81 11.84 48.92 11.69L48.92 11.69L48.92 11.69Q49.04 11.55 49.11 11.44L49.11 11.44L49.11 11.44Q49.17 11.33 49.18 11.30L49.18 11.30L49.18 11.30Q49.21 11.27 49.25 11.25L49.25 11.25L49.25 11.25Q49.29 11.23 49.33 11.24L49.33 11.24L49.33 11.24Q49.38 11.25 49.41 11.29L49.41 11.29L49.41 11.29Q49.44 11.33 49.44 11.40ZM54.13 8.91L54.13 8.91L54.13 8.91Q54.14 9.00 54.15 9.12L54.15 9.12L54.15 9.12Q54.15 9.24 54.15 9.37L54.15 9.37L54.15 9.37Q54.15 9.70 54.13 10.14L54.13 10.14L54.13 10.14Q54.10 10.58 54.06 11.18L54.06 11.18L54.06 11.18Q54.04 11.41 54.04 11.77L54.04 11.77L54.04 11.77Q54.03 12.13 54.03 12.51L54.03 12.51L54.03 12.51Q54.03 12.84 54.04 13.15L54.04 13.15L54.04 13.15Q54.05 13.45 54.07 13.69L54.07 13.69L54.07 13.69Q54.09 13.79 54.02 13.79L54.02 13.79L54.02 13.79Q53.96 13.80 53.89 13.78L53.89 13.78L53.89 13.78Q53.85 13.77 53.83 13.78L53.83 13.78L53.83 13.78Q53.80 13.79 53.77 13.82L53.77 13.82L53.77 13.82Q53.75 13.84 53.73 13.85L53.73 13.85L53.73 13.85Q53.70 13.86 53.66 13.82L53.66 13.82L53.66 13.82Q53.63 13.79 53.55 13.74L53.55 13.74L53.55 13.74Q53.46 13.69 53.37 13.62L53.37 13.62L53.37 13.62Q53.28 13.56 53.20 13.48L53.20 13.48L53.20 13.48Q53.12 13.41 53.07 13.34L53.07 13.34L53.07 13.34Q53.03 13.25 53.02 12.87L53.02 12.87L53.02 12.87Q53.01 12.50 53.01 11.96L53.01 11.96L53.01 11.04L53.01 11.04Q53.01 10.74 53.03 10.45L53.03 10.45L53.03 10.45Q53.05 10.15 53.08 9.88L53.08 9.88L53.08 9.88Q53.11 9.60 53.13 9.36L53.13 9.36L53.13 9.36Q53.15 9.12 53.15 8.92L53.15 8.92L53.15 8.92Q53.15 8.61 53.06 8.45L53.06 8.45L53.06 8.45Q53.04 8.42 52.94 8.48L52.94 8.48L52.94 8.48Q52.83 8.54 52.67 8.74L52.67 8.74L52.67 8.74Q52.51 8.94 52.31 9.30L52.31 9.30L52.31 9.30Q52.11 9.67 51.89 10.24L51.89 10.24L51.89 10.24Q51.67 10.81 51.44 11.63L51.44 11.63L51.44 11.63Q51.21 12.44 51.00 13.54L51.00 13.54L51.00 13.54Q50.98 13.64 50.95 13.68L50.95 13.68L50.95 13.68Q50.92 13.71 50.84 13.71L50.84 13.71L50.84 13.71Q50.78 13.71 50.75 13.63L50.75 13.63L50.75 13.63Q50.71 13.54 50.65 13.49L50.65 13.49L50.65 13.49Q50.52 13.49 50.42 13.46L50.42 13.46L50.42 13.46Q50.31 13.43 50.29 13.29L50.29 13.29L50.29 13.29Q50.29 13.24 50.27 13.20L50.27 13.20L50.27 13.20Q50.24 13.16 50.21 13.11L50.21 13.11L50.21 13.11Q50.18 13.06 50.16 13.00L50.16 13.00L50.16 13.00Q50.13 12.94 50.13 12.86L50.13 12.86L50.13 12.86Q50.16 12.38 50.17 11.82L50.17 11.82L50.17 11.82Q50.18 11.25 50.20 10.66L50.20 10.66L50.20 10.66Q50.22 10.07 50.23 9.47L50.23 9.47L50.23 9.47Q50.24 8.88 50.26 8.34L50.26 8.34L50.26 8.34Q50.29 7.79 50.30 7.32L50.30 7.32L50.30 7.32Q50.32 6.86 50.35 6.51L50.35 6.51L50.35 6.51Q50.43 5.50 50.51 4.91L50.51 4.91L50.51 4.91Q50.59 4.33 50.61 4.23L50.61 4.23L50.61 4.23Q50.63 4.16 50.65 4.13L50.65 4.13L50.65 4.13Q50.67 4.09 50.69 4.08L50.69 4.08L50.69 4.08Q50.71 4.07 50.72 4.06L50.72 4.06L50.72 4.06Q50.73 4.05 50.74 4.03L50.74 4.03L50.74 4.03Q50.75 4.00 50.79 4.00L50.79 4.00L50.79 4.00Q50.83 3.99 50.87 4.00L50.87 4.00L50.87 4.00Q50.92 4.00 50.96 4.00L50.96 4.00L50.96 4.00Q51.00 3.99 51.03 3.96L51.03 3.96L51.03 3.96Q51.08 3.92 51.12 3.90L51.12 3.90L51.12 3.90Q51.16 3.87 51.26 3.87L51.26 3.87L51.26 3.87Q51.37 3.86 51.43 3.87L51.43 3.87L51.43 3.87Q51.50 3.89 51.51 4.01L51.51 4.01L51.51 4.01Q51.53 4.22 51.52 4.56L51.52 4.56L51.52 4.56Q51.52 4.90 51.49 5.31L51.49 5.31L51.49 5.31Q51.46 5.72 51.43 6.18L51.43 6.18L51.43 6.18Q51.39 6.63 51.35 7.07L51.35 7.07L51.35 7.07Q51.32 7.51 51.29 7.90L51.29 7.90L51.29 7.90Q51.26 8.29 51.24 8.57L51.24 8.57L51.24 8.57Q51.23 8.73 51.23 8.95L51.23 8.95L51.23 8.95Q51.22 9.17 51.22 9.43L51.22 9.43L51.22 9.43Q51.22 9.69 51.22 9.96L51.22 9.96L51.22 9.96Q51.22 10.24 51.21 10.51L51.21 10.51L51.21 10.51Q51.43 9.85 51.67 9.36L51.67 9.36L51.67 9.36Q51.92 8.87 52.17 8.54L52.17 8.54L52.17 8.54Q52.41 8.22 52.64 8.05L52.64 8.05L52.64 8.05Q52.87 7.88 53.05 7.85L53.05 7.85L53.05 7.85Q53.09 7.84 53.19 7.87L53.19 7.87L53.19 7.87Q53.30 7.90 53.42 7.93L53.42 7.93L53.42 7.93Q53.53 7.96 53.63 8.00L53.63 8.00L53.63 8.00Q53.72 8.04 53.74 8.05L53.74 8.05L53.74 8.05Q53.76 8.09 53.82 8.15L53.82 8.15L53.82 8.15Q53.87 8.20 53.93 8.30L53.93 8.30L53.93 8.30Q53.99 8.39 54.04 8.54L54.04 8.54L54.04 8.54Q54.09 8.70 54.13 8.91Z"></path></g><!----><!----></svg>